<svg width="20" height="20" viewBox="0 0 20 20" fill="none" xmlns="http://www.w3.org/2000/svg">
<g clip-path="url(#clip0_461_1976)">
<path d="M18.2422 0H1.75781C0.788555 0 0 0.788555 0 1.75781V18.2422C0 19.2114 0.788555 20 1.75781 20H18.2422C19.2114 20 20 19.2114 20 18.2422V1.75781C20 0.788555 19.2114 0 18.2422 0ZM18.8281 18.2422C18.8281 18.5653 18.5653 18.8281 18.2422 18.8281H1.75781C1.43473 18.8281 1.17188 18.5653 1.17188 18.2422V1.75781C1.17188 1.43473 1.43473 1.17188 1.75781 1.17188H18.2422C18.5653 1.17188 18.8281 1.43473 18.8281 1.75781V18.2422Z" fill="#DA2C2C"/>
<path d="M17.665 12.6751C17.0021 11.3343 14.1158 11.2029 12.6186 11.2368C11.7345 10.3259 10.6958 9.16822 9.92187 8.04099C10.7557 5.55306 10.9548 3.89134 10.5132 3.09861C9.95789 2.10193 9.19121 1.989 8.65883 2.21537C7.72957 2.61068 7.10601 4.22416 7.78074 6.43564C7.95023 6.99119 8.25058 7.589 8.62883 8.19545C8.15312 9.53431 7.54816 10.9427 6.91133 12.2129C5.39269 12.734 3.66832 13.6039 2.76258 15.009C2.40617 15.5619 2.35863 16.2478 2.63539 16.8439C3.08879 17.8203 4.08398 18.0836 5.27531 16.8829C5.70387 16.451 6.17316 15.8331 6.67023 15.0463C7.02141 14.4904 7.3809 13.8572 7.73398 13.1778C9.1159 12.7541 10.6865 12.5001 12.1417 12.4264C12.9439 13.2331 13.5541 13.7793 13.6373 13.8533C14.282 14.4404 15.3271 15.0401 16.2271 14.9343C16.7431 14.8736 17.1809 14.5981 17.4931 14.1375C17.9434 13.4733 17.7941 12.9361 17.665 12.6751ZM5.71762 14.3597C4.47551 16.3428 3.88004 16.4995 3.80164 16.5113C3.7859 16.497 3.74648 16.4541 3.69828 16.3503C3.59336 16.1244 3.61223 15.8537 3.7475 15.6439C4.18601 14.9637 4.97406 14.345 6.03644 13.8328C5.92973 14.0151 5.82324 14.191 5.71762 14.3597ZM9.11758 3.29373C9.12215 3.29177 9.12742 3.2908 9.13336 3.2908C9.19918 3.2908 9.34562 3.41088 9.48941 3.66896C9.62433 3.91115 9.65887 4.79818 9.12254 6.66795C9.03254 6.47076 8.95805 6.27888 8.90156 6.09369C8.38781 4.40974 8.84797 3.40841 9.11758 3.29373ZM8.42238 11.7773C8.78812 10.9913 9.13473 10.176 9.44367 9.37072C9.96312 10.0574 10.5393 10.7274 11.0942 11.3316C10.19 11.422 9.28039 11.5728 8.42238 11.7773ZM16.5231 13.4798C16.367 13.7101 16.2104 13.756 16.0914 13.7703C15.5127 13.8397 14.6728 13.2106 14.425 12.9857C14.4229 12.9838 14.4209 12.9819 14.4187 12.98C14.4085 12.9709 14.1798 12.7667 13.8198 12.4249C13.8325 12.4256 13.8452 12.4263 13.8579 12.427C15.6524 12.5288 16.4896 12.9417 16.6145 13.1944C16.6501 13.2664 16.5845 13.3894 16.5231 13.4798Z" fill="#DA2C2C"/>
</g>
<defs>
<clipPath id="clip0_461_1976">
<rect width="20" height="20" fill="white"/>
</clipPath>
</defs>
</svg>
