<svg width="20" height="21" viewBox="0 0 20 21" fill="none" xmlns="http://www.w3.org/2000/svg">
<g clip-path="url(#clip0_461_1905)">
<path d="M10 7.39294C11.8338 7.39294 13.3203 5.90639 13.3203 4.07263C13.3203 2.23887 11.8338 0.752319 10 0.752319C8.16624 0.752319 6.67969 2.23887 6.67969 4.07263C6.67969 5.90639 8.16624 7.39294 10 7.39294Z" fill="#9B9B9B"/>
<path d="M12.4413 7.84277C11.7383 8.29929 10.9004 8.56484 10.0015 8.56484C9.10266 8.56484 8.26473 8.29929 7.56172 7.84277C6.78457 8.13976 6.06403 8.57793 5.4375 9.14027L10.0015 10.8518L14.5655 9.14027C13.939 8.57793 13.2185 8.13972 12.4413 7.84277Z" fill="#9B9B9B"/>
<path d="M17.0312 12.8617H16.6406C16.317 12.8617 16.0547 13.124 16.0547 13.4476V15.0101C16.0547 15.3337 16.317 15.5961 16.6406 15.5961H17.0312C17.7863 15.5961 18.3984 14.9839 18.3984 14.2289C18.3984 13.4738 17.7863 12.8617 17.0312 12.8617Z" fill="#9B9B9B"/>
<path d="M3.41625 9.9037C3.25828 10.0132 3.16406 10.1931 3.16406 10.3853V11.6898H3.35938C4.32863 11.6898 5.11719 12.4784 5.11719 13.4476V15.0101C5.11719 15.9794 4.32863 16.7679 3.35938 16.7679H3.16406V18.0025C3.16406 18.2468 3.31559 18.4654 3.54426 18.5511L9.41406 20.7523V11.8836L3.95574 9.83667C3.77578 9.76913 3.57418 9.79417 3.41625 9.9037Z" fill="#9B9B9B"/>
<path d="M14.8828 15.0101V13.4476C14.8828 12.4784 15.6714 11.6898 16.6406 11.6898H16.8359V10.3853C16.8359 10.1931 16.7417 10.0132 16.5838 9.9037C16.4258 9.79417 16.2241 9.76913 16.0443 9.83667L10.5859 11.8836V20.7523L16.4557 18.5511C16.6844 18.4654 16.8359 18.2468 16.8359 18.0025V16.7679H16.6406C15.6714 16.7679 14.8828 15.9794 14.8828 15.0101Z" fill="#9B9B9B"/>
<path d="M3.94531 15.0101V13.4476C3.94531 13.124 3.68297 12.8617 3.35938 12.8617H2.96875C2.21367 12.8617 1.60156 13.4738 1.60156 14.2289C1.60156 14.9839 2.21367 15.5961 2.96875 15.5961H3.35938C3.68297 15.5961 3.94531 15.3337 3.94531 15.0101Z" fill="#9B9B9B"/>
</g>
<defs>
<clipPath id="clip0_461_1905">
<rect width="20" height="20" fill="white" transform="translate(0 0.752319)"/>
</clipPath>
</defs>
</svg>
