<svg width="20" height="21" viewBox="0 0 20 21" fill="none" xmlns="http://www.w3.org/2000/svg">
<g clip-path="url(#clip0_461_1915)">
<path d="M4.14062 20.7523H15.8594C16.8287 20.7523 17.6172 19.9638 17.6172 18.9945V6.6117H13.5156C12.5463 6.6117 11.7578 5.82318 11.7578 4.85388V0.752319H4.14062C3.17133 0.752319 2.38281 1.54084 2.38281 2.51013V18.9945C2.38281 19.9638 3.17133 20.7523 4.14062 20.7523ZM6.48438 8.99451H13.5156C13.8395 8.99451 14.1016 9.25658 14.1016 9.58044C14.1016 9.90431 13.8395 10.1664 13.5156 10.1664H6.48438C6.16051 10.1664 5.89844 9.90431 5.89844 9.58044C5.89844 9.25658 6.16051 8.99451 6.48438 8.99451ZM6.48438 11.3382H13.5156C13.8395 11.3382 14.1016 11.6003 14.1016 11.9242C14.1016 12.248 13.8395 12.5101 13.5156 12.5101H6.48438C6.16051 12.5101 5.89844 12.248 5.89844 11.9242C5.89844 11.6003 6.16051 11.3382 6.48438 11.3382ZM6.48438 13.682H13.5156C13.8395 13.682 14.1016 13.9441 14.1016 14.2679C14.1016 14.5918 13.8395 14.8539 13.5156 14.8539H6.48438C6.16051 14.8539 5.89844 14.5918 5.89844 14.2679C5.89844 13.9441 6.16051 13.682 6.48438 13.682ZM6.48438 16.0257H11.1719C11.4957 16.0257 11.7578 16.2878 11.7578 16.6117C11.7578 16.9355 11.4957 17.1976 11.1719 17.1976H6.48438C6.16051 17.1976 5.89844 16.9355 5.89844 16.6117C5.89844 16.2878 6.16051 16.0257 6.48438 16.0257Z" fill="#9B9B9B"/>
<path d="M13.5156 5.43982H17.2739L12.9297 1.09564V4.85388C12.9297 5.17716 13.1923 5.43982 13.5156 5.43982Z" fill="#9B9B9B"/>
</g>
<defs>
<clipPath id="clip0_461_1915">
<rect width="20" height="20" fill="white" transform="translate(0 0.752319)"/>
</clipPath>
</defs>
</svg>
