<svg width="20" height="21" viewBox="0 0 20 21" fill="none" xmlns="http://www.w3.org/2000/svg">
<path d="M8.99505 10.8273C10.2124 8.18729 13.37 7.02479 16.0481 8.22479C18.7264 9.42479 19.9057 12.5373 18.6883 15.1773C17.8286 17.0523 15.9341 18.2523 13.8417 18.2523C11.7874 18.2523 9.90805 17.0823 9.02547 15.2523H1.66797V13.7523C1.71362 12.8973 2.30709 12.1998 3.44838 11.6373C4.58966 11.0748 6.02007 10.7823 7.75483 10.7523C8.18851 10.7523 8.59938 10.7898 8.99505 10.8273ZM7.75483 3.25229C8.60697 3.27479 9.32222 3.56729 9.8928 4.12979C10.4635 4.69229 10.745 5.39729 10.745 6.25229C10.745 7.10729 10.4635 7.81229 9.8928 8.37479C9.32222 8.93729 8.60697 9.21479 7.75483 9.21479C6.90267 9.21479 6.18746 8.93729 5.61682 8.37479C5.04618 7.81229 4.76466 7.10729 4.76466 6.25229C4.76466 5.39729 5.04618 4.69229 5.61682 4.12979C6.18746 3.56729 6.90267 3.27479 7.75483 3.25229ZM13.8417 16.7523C14.8506 16.7523 15.8183 16.3572 16.5317 15.654C17.2451 14.9507 17.646 13.9969 17.646 13.0023C17.646 12.0077 17.2451 11.0539 16.5317 10.3506C15.8183 9.64737 14.8506 9.25229 13.8417 9.25229C12.8327 9.25229 11.8651 9.64737 11.1516 10.3506C10.4382 11.0539 10.0374 12.0077 10.0374 13.0023C10.0374 13.9969 10.4382 14.9507 11.1516 15.654C11.8651 16.3572 12.8327 16.7523 13.8417 16.7523ZM13.0808 10.7523H14.2221V12.8673L16.0786 13.9248L15.508 14.8998L13.0808 13.5198V10.7523Z" fill="#9B9B9B"/>
</svg>
