<svg width="22" height="22" viewBox="0 0 22 22" fill="none" xmlns="http://www.w3.org/2000/svg">
<g clip-path="url(#clip0_461_1982)">
<path d="M12.661 0.559194C12.5523 0.47085 12.4091 0.437077 12.2724 0.467542L0.355716 3.21754C0.145985 3.26575 -0.00199911 3.45335 2.0419e-05 3.66854V19.2519C0.000106357 19.478 0.165149 19.6704 0.388673 19.7047L12.3053 21.5381C12.5555 21.5765 12.7895 21.4049 12.828 21.1548C12.8315 21.1318 12.8333 21.1085 12.8333 21.0853V0.918542C12.8338 0.778765 12.7703 0.646464 12.661 0.559194Z" fill="#4E71CC"/>
<path d="M21.543 19.7102H12.3763C12.1232 19.7102 11.918 19.505 11.918 19.2519C11.918 18.9987 12.1232 18.7935 12.3763 18.7935H21.0847V3.2102H12.3763C12.1232 3.2102 11.918 3.00498 11.918 2.75185C11.918 2.49872 12.1232 2.29355 12.3763 2.29355H21.543C21.7961 2.29355 22.0013 2.49877 22.0013 2.7519V19.2519C22.0013 19.505 21.7961 19.7102 21.543 19.7102Z" fill="#4E71CC"/>
<path d="M7.79466 15.1269C7.59043 15.1267 7.41104 14.9913 7.35466 14.795L5.96132 9.92019L4.56797 14.795C4.46733 15.0383 4.18855 15.1539 3.94526 15.0533C3.8283 15.0049 3.73541 14.912 3.68702 14.795L1.85372 8.37839C1.77698 8.13716 1.91035 7.87944 2.15158 7.8027C2.3928 7.72595 2.65053 7.85933 2.72727 8.10056C2.72998 8.10906 2.73243 8.11766 2.73466 8.12629L4.12797 13.0002L5.52132 8.12539C5.62195 7.88215 5.90073 7.76652 6.14402 7.86715C6.26098 7.91553 6.35388 8.00843 6.40226 8.12539L7.79466 13.0002L9.18801 8.12634C9.25397 7.88511 9.50301 7.74301 9.74424 7.80897C9.74768 7.80991 9.75107 7.8109 9.75451 7.81189C9.99771 7.88159 10.1385 8.13515 10.069 8.37839L8.23556 14.795C8.1791 14.9917 7.99919 15.1271 7.79466 15.1269Z" fill="#FAFAFA"/>
<path d="M19.7097 5.96019H12.3763C12.1232 5.96019 11.918 5.75497 11.918 5.50184C11.918 5.24871 12.1232 5.04349 12.3763 5.04349H19.7097C19.9628 5.04349 20.168 5.24871 20.168 5.50184C20.168 5.75501 19.9628 5.96019 19.7097 5.96019Z" fill="#4E71CC"/>
<path d="M19.7097 8.71019H12.3763C12.1232 8.71019 11.918 8.50497 11.918 8.25184C11.918 7.99871 12.1232 7.79349 12.3763 7.79349H19.7097C19.9628 7.79349 20.168 7.99871 20.168 8.25184C20.168 8.50497 19.9628 8.71019 19.7097 8.71019Z" fill="#4E71CC"/>
<path d="M19.7097 11.4602H12.3763C12.1232 11.4602 11.918 11.255 11.918 11.0018C11.918 10.7487 12.1232 10.5435 12.3763 10.5435H19.7097C19.9628 10.5435 20.168 10.7487 20.168 11.0018C20.168 11.255 19.9628 11.4602 19.7097 11.4602Z" fill="#4E71CC"/>
<path d="M19.7097 14.2102H12.3763C12.1232 14.2102 11.918 14.005 11.918 13.7518C11.918 13.4987 12.1232 13.2935 12.3763 13.2935H19.7097C19.9628 13.2935 20.168 13.4987 20.168 13.7518C20.168 14.005 19.9628 14.2102 19.7097 14.2102Z" fill="#4E71CC"/>
<path d="M19.7097 16.9602H12.3763C12.1232 16.9602 11.918 16.755 11.918 16.5018C11.918 16.2487 12.1232 16.0435 12.3763 16.0435H19.7097C19.9628 16.0435 20.168 16.2487 20.168 16.5018C20.168 16.755 19.9628 16.9602 19.7097 16.9602Z" fill="#4E71CC"/>
</g>
<defs>
<clipPath id="clip0_461_1982">
<rect width="22" height="22" fill="white"/>
</clipPath>
</defs>
</svg>
