<svg width="20" height="21" viewBox="0 0 20 21" fill="none" xmlns="http://www.w3.org/2000/svg">
<g clip-path="url(#clip0_461_1912)">
<path d="M11.169 9.97435H13.0539V11.141H11.169C10.8452 11.141 10.5831 11.4035 10.5831 11.7269V13.6122H9.41649V11.7269C9.41649 11.4035 9.15442 11.141 8.83063 11.141H6.94531V9.97435H8.83063C9.15442 9.97435 9.41649 9.71228 9.41649 9.38849V7.50317H10.5831V9.38849C10.5831 9.71224 10.8452 9.97435 11.169 9.97435Z" fill="#9B9B9B"/>
<path d="M18.4734 6.17675L18.473 6.15761C18.4637 5.65923 18.4547 5.1882 18.4547 4.73513C18.4547 4.0485 17.8962 3.49036 17.2099 3.49036C14.554 3.49036 12.5382 2.73303 10.8662 1.10706C10.3795 0.634072 9.61712 0.634072 9.13046 1.10706C7.45879 2.73303 5.44302 3.49036 2.78749 3.49036C2.10125 3.49036 1.54272 4.0485 1.54272 4.73513C1.54272 5.19757 1.53374 5.6733 1.52397 6.17714C1.47906 8.52841 1.4232 11.4546 2.40511 14.1109C2.94528 15.5717 3.76276 16.8406 4.83528 17.8835C6.05701 19.0712 7.65681 20.0133 9.59056 20.6835C9.72218 20.7292 9.85928 20.7523 9.99832 20.7523C10.1373 20.7523 10.2748 20.7292 10.4061 20.6835C12.3398 20.0133 13.94 19.0712 15.1617 17.8835C16.2343 16.8406 17.0517 15.5713 17.5919 14.1109C18.5742 11.4542 18.5183 8.52802 18.4734 6.17675ZM14.2247 11.7268C14.2247 12.0502 13.9627 12.3127 13.6389 12.3127H11.7539V14.198C11.7539 14.5214 11.4915 14.7838 11.1681 14.7838H8.82971C8.50632 14.7838 8.24385 14.5214 8.24385 14.198V12.3127H6.35853C6.03475 12.3127 5.77267 12.0502 5.77267 11.7268V9.38842C5.77267 9.06503 6.03475 8.80256 6.35853 8.80256H8.24385V6.91724C8.24385 6.59385 8.50632 6.33138 8.82971 6.33138H11.1681C11.4915 6.33138 11.7539 6.59385 11.7539 6.91724V8.80256H13.6389C13.9627 8.80256 14.2247 9.06503 14.2247 9.38842V11.7268Z" fill="#9B9B9B"/>
</g>
<defs>
<clipPath id="clip0_461_1912">
<rect width="20" height="20" fill="white" transform="translate(0 0.752319)"/>
</clipPath>
</defs>
</svg>
