<svg width="20" height="21" viewBox="0 0 20 21" fill="none" xmlns="http://www.w3.org/2000/svg">
<path d="M16.1363 14.1614V8.02501H6.59091V14.1614H16.1363ZM16.1363 4.61592C16.498 4.61592 16.8448 4.7596 17.1006 5.01532C17.3563 5.27106 17.5 5.61791 17.5 5.97956V14.1614C17.5 14.523 17.3563 14.8699 17.1006 15.1256C16.8448 15.3814 16.498 15.525 16.1363 15.525H6.59091C5.83409 15.525 5.22727 14.9114 5.22727 14.1614V5.97956C5.22727 5.61791 5.37094 5.27106 5.62667 5.01532C5.8824 4.7596 6.22925 4.61592 6.59091 4.61592H7.27273V3.25229H8.63633V4.61592H14.0909V3.25229H15.4546V4.61592H16.1363ZM13.7704 10.1114L10.7432 13.1386L8.91592 11.3114L9.63867 10.5886L10.7432 11.6932L13.0477 9.38862L13.7704 10.1114ZM3.86363 16.8886H13.4091V18.2523H3.86363C3.10682 18.2523 2.5 17.6386 2.5 16.8886V8.70683H3.86363V16.8886Z" fill="#9B9B9B"/>
</svg>
