<svg width="26" height="20" viewBox="0 0 26 20" fill="none" xmlns="http://www.w3.org/2000/svg">
<path d="M13 0.833336C9.33667 0.833336 6.32198 3.6625 6.02506 7.25H5.70833C2.97425 7.25 0.75 9.47425 0.75 12.2083C0.75 14.9424 2.97425 17.1667 5.70833 17.1667H8.70361C8.46503 16.8266 8.33333 16.4241 8.33333 16C8.33333 15.4546 8.54589 14.9421 8.93148 14.5565C9.31706 14.1709 9.82958 13.9583 10.375 13.9583C10.5757 13.9583 10.7717 13.9872 10.9583 14.0426V9.875C10.9583 8.74917 11.8742 7.83334 13 7.83334C14.1258 7.83334 15.0417 8.74917 15.0417 9.875V14.0426C15.2283 13.9872 15.4243 13.9583 15.625 13.9583C16.1704 13.9583 16.6835 14.1709 17.0685 14.5565C17.4547 14.9421 17.6667 15.4546 17.6667 16C17.6667 16.4241 17.535 16.8266 17.2964 17.1667H20.2917C23.0257 17.1667 25.25 14.9424 25.25 12.2083C25.25 9.47425 23.0257 7.25 20.2917 7.25H19.9749C19.678 3.6625 16.6633 0.833336 13 0.833336ZM12.9863 8.98747C12.7545 8.99109 12.5335 9.0866 12.372 9.25301C12.2105 9.41942 12.1217 9.64313 12.125 9.875V16.5127L10.9937 15.3813C10.913 15.2974 10.8165 15.2303 10.7096 15.1841C10.6027 15.138 10.4877 15.1136 10.3713 15.1124C10.2549 15.1112 10.1394 15.1333 10.0317 15.1773C9.92387 15.2213 9.82596 15.2863 9.74364 15.3686C9.66132 15.451 9.59626 15.5489 9.55225 15.6567C9.50825 15.7644 9.48619 15.8799 9.48738 15.9963C9.48856 16.1127 9.51296 16.2277 9.55914 16.3346C9.60533 16.4415 9.67237 16.538 9.75635 16.6187L12.3062 19.1685C12.3882 19.2754 12.4937 19.3619 12.6147 19.4213C12.7356 19.4808 12.8687 19.5114 13.0034 19.511C13.1382 19.5106 13.271 19.479 13.3915 19.4188C13.5121 19.3586 13.6171 19.2714 13.6984 19.1639L16.2437 16.6187C16.3276 16.538 16.3947 16.4415 16.4409 16.3346C16.487 16.2277 16.5114 16.1127 16.5126 15.9963C16.5138 15.8799 16.4917 15.7644 16.4477 15.6567C16.4037 15.5489 16.3387 15.451 16.2564 15.3686C16.174 15.2863 16.0761 15.2213 15.9683 15.1773C15.8606 15.1333 15.7451 15.1112 15.6287 15.1124C15.5123 15.1136 15.3973 15.138 15.2904 15.1841C15.1835 15.2303 15.087 15.2974 15.0063 15.3813L13.875 16.5127V9.875C13.8767 9.75789 13.8548 9.64163 13.8108 9.53312C13.7667 9.4246 13.7013 9.32604 13.6184 9.24327C13.5355 9.16051 13.4369 9.09522 13.3283 9.05128C13.2197 9.00734 13.1034 8.98564 12.9863 8.98747Z" fill="#438AC9"/>
</svg>
