<svg width="51" height="41" viewBox="0 0 51 41" fill="none" xmlns="http://www.w3.org/2000/svg">
<path d="M44.9022 7.19565H39.5804L36.6424 2.76087C35.5337 1.09782 33.5935 0.0999985 31.5978 0.0999985H19.4022C17.4065 0.0999985 15.4663 1.09782 14.3576 2.76087L11.4196 7.19565H6.09783C2.7163 7.19565 0 9.91195 0 13.2935V34.8022C0 38.1837 2.7163 40.9 6.09783 40.9H44.9022C48.2837 40.9 51 38.1837 51 34.8022V13.2935C51 9.91195 48.2837 7.19565 44.9022 7.19565ZM25.5 35.9109C17.9054 35.9109 11.7522 29.7576 11.7522 22.163C11.7522 14.5685 17.9054 8.47065 25.5 8.47065C33.0946 8.47065 39.2478 14.6239 39.2478 22.2185C39.2478 29.7576 33.0946 35.9109 25.5 35.9109ZM44.1261 15.788C44.0707 15.788 44.0152 15.788 43.9043 15.788H41.687C40.6891 15.7326 39.913 14.9011 39.9685 13.9033C40.0239 12.9609 40.7446 12.2402 41.687 12.1848H43.9043C44.9022 12.1293 45.7337 12.9054 45.7891 13.9033C45.8446 14.9011 45.1239 15.7326 44.1261 15.788Z" fill="#B9B2B2"/>
<path d="M25.5016 14.5685C21.2885 14.5685 17.8516 18.0054 17.8516 22.2185C17.8516 26.4315 21.2885 29.813 25.5016 29.813C29.7146 29.813 33.1516 26.3761 33.1516 22.163C33.1516 17.95 29.7146 14.5685 25.5016 14.5685Z" fill="#B9B2B2"/>
</svg>
