<svg width="18" height="18" viewBox="0 0 18 18" fill="none" xmlns="http://www.w3.org/2000/svg">
<path d="M14.9375 3.37487H17.5686L14.625 0.431229V3.06238C14.6252 3.14518 14.6582 3.22452 14.7168 3.28307C14.7753 3.34162 14.8547 3.37462 14.9375 3.37487Z" fill="#BEBEBE"/>
<path d="M7.12489 8.99962C6.37934 9.00074 5.66465 9.2974 5.13747 9.82458C4.61029 10.3518 4.31363 11.0665 4.31251 11.812C4.31178 12.1316 4.36677 12.4488 4.47501 12.7495C4.55315 12.9698 4.65811 13.1797 4.78751 13.3744C4.83438 13.4432 4.88438 13.5088 4.93751 13.5744C5.19998 13.9024 5.53286 14.1672 5.91149 14.3491C6.29013 14.5311 6.70483 14.6255 7.12491 14.6255C7.54499 14.6255 7.9597 14.5311 8.33833 14.3491C8.71697 14.1672 9.04984 13.9024 9.31232 13.5744C9.36544 13.5088 9.41544 13.4432 9.46232 13.3744C9.59171 13.1797 9.69666 12.9698 9.7748 12.7495C9.88304 12.4488 9.93803 12.1316 9.9373 11.812C9.93619 11.0664 9.63952 10.3517 9.11233 9.82457C8.58514 9.29738 7.87044 9.00073 7.12489 8.99962Z" fill="#BEBEBE"/>
<path d="M7.12492 15.2494C6.44468 15.251 5.77959 15.0485 5.21563 14.6681C5.11905 14.6036 5.0262 14.5337 4.93751 14.4588V17.4368C4.93711 17.4934 4.95236 17.5491 4.98159 17.5976C5.01081 17.6461 5.05287 17.6856 5.10313 17.7118C5.15238 17.7393 5.20838 17.7524 5.26473 17.7497C5.32109 17.7469 5.37553 17.7284 5.42185 17.6961L7.12491 16.5618L8.82796 17.6961C8.87492 17.7273 8.92944 17.7452 8.98573 17.7478C9.04203 17.7505 9.098 17.7379 9.14769 17.7112C9.19737 17.6846 9.23892 17.6451 9.26791 17.5967C9.29691 17.5484 9.31226 17.4931 9.31234 17.4368V14.4588C9.22491 14.5339 9.13308 14.6039 9.03734 14.6681C8.47203 15.0481 7.80607 15.2505 7.12492 15.2494Z" fill="#BEBEBE"/>
<path d="M14.9369 3.99984C14.6885 3.99911 14.4504 3.90011 14.2748 3.72446C14.0991 3.54881 14.0001 3.31078 13.9994 3.06238V0.25H1.18746C0.939053 0.250725 0.701027 0.349725 0.525376 0.525376C0.349725 0.701027 0.250725 0.939053 0.25 1.18746V12.437C0.250727 12.6854 0.349728 12.9234 0.525379 13.0991C0.701029 13.2747 0.939053 13.3737 1.18746 13.3744H4.06547C3.99477 13.2395 3.93419 13.0996 3.88422 12.9557C3.75222 12.5889 3.68559 12.2018 3.68734 11.812C3.68821 10.9009 4.05074 10.0275 4.69528 9.38353C5.33981 8.73961 6.21362 8.37791 7.12469 8.37791C8.03577 8.37791 8.90957 8.73961 9.55411 9.38353C10.1986 10.0275 10.5612 10.9009 10.562 11.812C10.5637 12.2041 10.496 12.5934 10.362 12.9619C10.3118 13.1032 10.2523 13.241 10.1839 13.3744H16.8118C17.0602 13.3737 17.2982 13.2747 17.4739 13.099C17.6495 12.9234 17.7485 12.6854 17.7492 12.437V3.99984H14.9369ZM3.37487 2.74989H10.8746C10.9569 2.75063 11.0357 2.78387 11.0937 2.8424C11.1517 2.90092 11.1843 2.97998 11.1843 3.06238C11.1843 3.14477 11.1517 3.22384 11.0937 3.28236C11.0357 3.34088 10.9569 3.37413 10.8746 3.37487H3.37487C3.29247 3.37413 3.21371 3.34088 3.1557 3.28236C3.0977 3.22384 3.06516 3.14477 3.06516 3.06238C3.06516 2.97998 3.0977 2.90092 3.1557 2.8424C3.21371 2.78387 3.29247 2.75063 3.37487 2.74989ZM3.37487 5.87476C3.33358 5.87515 3.29263 5.86735 3.25437 5.85183C3.21611 5.8363 3.18131 5.81334 3.15198 5.78429C3.12265 5.75523 3.09936 5.72065 3.08347 5.68254C3.06758 5.64444 3.0594 5.60356 3.0594 5.56227C3.0594 5.52098 3.06758 5.4801 3.08347 5.442C3.09936 5.40389 3.12265 5.36931 3.15198 5.34025C3.18131 5.3112 3.21611 5.28824 3.25437 5.27271C3.29263 5.25719 3.33358 5.24939 3.37487 5.24978H10.8746C10.9158 5.24939 10.9568 5.25719 10.995 5.27271C11.0333 5.28824 11.0681 5.3112 11.0974 5.34025C11.1268 5.36931 11.1501 5.40389 11.1659 5.442C11.1818 5.4801 11.19 5.52098 11.19 5.56227C11.19 5.60356 11.1818 5.64444 11.1659 5.68254C11.1501 5.72065 11.1268 5.75523 11.0974 5.78429C11.0681 5.81334 11.0333 5.8363 10.995 5.85183C10.9568 5.86735 10.9158 5.87515 10.8746 5.87476H3.37487ZM14.9369 10.8745H13.6869C13.6041 10.8743 13.5248 10.8413 13.4662 10.7827C13.4077 10.7242 13.3747 10.6448 13.3744 10.562V10.0652L12.6588 10.7839C12.5997 10.8422 12.52 10.8748 12.437 10.8745C12.396 10.8756 12.3553 10.867 12.3182 10.8495C12.2608 10.8265 12.2117 10.7868 12.1772 10.7356C12.1426 10.6843 12.1243 10.6238 12.1245 10.562V10.0652L11.4089 10.7839C11.3797 10.813 11.3452 10.8361 11.3071 10.8519C11.269 10.8677 11.2282 10.8758 11.187 10.8758C11.1458 10.8758 11.105 10.8677 11.0669 10.8519C11.0289 10.8361 10.9943 10.813 10.9651 10.7839C10.936 10.7547 10.9129 10.7202 10.8971 10.6821C10.8814 10.644 10.8732 10.6032 10.8732 10.562C10.8732 10.5208 10.8814 10.48 10.8971 10.4419C10.9129 10.4039 10.936 10.3693 10.9651 10.3401L12.2151 9.09019C12.2591 9.04692 12.3149 9.0176 12.3755 9.00593C12.4361 8.99425 12.4988 9.00074 12.5557 9.02457C12.6131 9.04756 12.6622 9.08727 12.6968 9.13853C12.7313 9.18979 12.7497 9.25025 12.7495 9.31207V9.80891L13.465 9.0902C13.509 9.04692 13.5648 9.01761 13.6254 9.00593C13.686 8.99426 13.7487 9.00074 13.8057 9.02457C13.863 9.04757 13.9122 9.08727 13.9467 9.13853C13.9813 9.1898 13.9996 9.25026 13.9994 9.31207V10.2495H14.9369C14.9782 10.2491 15.0191 10.2569 15.0574 10.2725C15.0956 10.288 15.1304 10.3109 15.1598 10.34C15.1891 10.3691 15.2124 10.4036 15.2283 10.4417C15.2442 10.4799 15.2523 10.5207 15.2523 10.562C15.2523 10.6033 15.2442 10.6442 15.2283 10.6823C15.2124 10.7204 15.1891 10.755 15.1598 10.784C15.1304 10.8131 15.0956 10.836 15.0574 10.8516C15.0191 10.8671 14.9782 10.8749 14.9369 10.8745L14.9369 10.8745Z" fill="#BEBEBE"/>
</svg>
