<svg width="20" height="20" viewBox="0 0 20 20" fill="none" xmlns="http://www.w3.org/2000/svg">
<path d="M5.94566 5.33426C6.37302 5.33426 6.71945 4.96856 6.71945 4.51744C6.71945 4.06631 6.37302 3.70061 5.94566 3.70061C5.51831 3.70061 5.17188 4.06631 5.17188 4.51744C5.17188 4.96856 5.51831 5.33426 5.94566 5.33426Z" fill="#BEBEBE"/>
<path d="M11.0592 10.1605L9.74609 11.5466L11.7035 13.6129C12.0689 13.9987 12.6607 14.0016 13.0227 13.6194C13.3848 13.2372 13.382 12.6125 13.0166 12.2268L11.0592 10.1605Z" fill="#BEBEBE"/>
<path d="M3.77867 16.6062C3.77867 16.4258 3.64012 16.2795 3.46918 16.2795H0.993086C0.822148 16.2795 0.683594 16.4258 0.683594 16.6062V20.3636C0.683594 20.4538 0.752891 20.527 0.838359 20.527H3.77867V16.6062Z" fill="#BEBEBE"/>
<path d="M19.1029 20.3636V8.43813C19.1029 8.25768 18.9643 8.11142 18.7934 8.11142H16.3173C16.1464 8.11142 16.0078 8.25768 16.0078 8.43813V20.5269H18.9482C19.0336 20.5269 19.1029 20.4538 19.1029 20.3636Z" fill="#BEBEBE"/>
<path d="M5.94793 10.5618C8.25187 10.5618 10.1263 8.58315 10.1263 6.15106C10.1263 3.71896 8.25187 1.74025 5.94793 1.74025C3.64398 1.74025 1.76953 3.71892 1.76953 6.15106C1.76953 8.58319 3.64395 10.5618 5.94793 10.5618ZM5.94793 3.04716C6.71594 3.04716 7.3407 3.70672 7.3407 4.5174C7.3407 5.32809 6.7159 5.98764 5.94793 5.98764C5.17996 5.98764 4.55516 5.32809 4.55516 4.5174C4.55512 3.70672 5.17992 3.04716 5.94793 3.04716ZM3.78137 7.94805C3.78137 7.13732 4.40617 6.47781 5.17414 6.47781H6.72168C7.48969 6.47781 8.11445 7.13736 8.11445 7.94805V8.27475C8.11445 8.4552 7.9759 8.60146 7.80496 8.60146C7.63402 8.60146 7.49547 8.4552 7.49547 8.27475V7.94805C7.49547 7.49768 7.14836 7.13122 6.72168 7.13122H5.17414C4.7475 7.13122 4.40035 7.49764 4.40035 7.94805V8.27475C4.40035 8.4552 4.2618 8.60146 4.09086 8.60146C3.91992 8.60146 3.78137 8.4552 3.78137 8.27475V7.94805Z" fill="#BEBEBE"/>
<path d="M11.2641 14.075L10.8984 13.6889V20.5269H13.9935V13.3199H13.8648C13.8001 13.5994 13.6648 13.8639 13.4588 14.0814C13.1582 14.3987 12.763 14.5572 12.367 14.5572C11.9682 14.5572 11.5686 14.3964 11.2641 14.075Z" fill="#BEBEBE"/>
<path d="M5.79297 15.6261V20.527H8.88805V15.6261C8.88805 15.446 8.74922 15.2994 8.57855 15.2994H6.10246C5.9318 15.2993 5.79297 15.4459 5.79297 15.6261Z" fill="#BEBEBE"/>
<path d="M8.43168 11.6019C8.67875 11.6019 8.91098 11.5007 9.08637 11.3173C9.08695 11.3167 9.08746 11.316 9.08805 11.3154C9.08961 11.3137 9.09137 11.3123 9.09297 11.3107L10.8348 9.47186C10.8362 9.47034 10.8374 9.46864 10.8389 9.46712C10.8402 9.46568 10.8418 9.46444 10.8431 9.46304C11.0187 9.2776 11.1155 9.0311 11.1155 8.7688C11.1155 8.50646 11.0187 8.25983 10.843 8.07436L10.5079 7.72064C10.0345 9.24989 8.88898 10.461 7.44141 10.9633L7.77383 11.3142C7.94953 11.4997 8.18316 11.6019 8.43168 11.6019Z" fill="#BEBEBE"/>
<path d="M7.77373 13.1457C7.81197 13.0477 7.81181 12.9399 7.77326 12.8421C7.7347 12.7442 7.66236 12.668 7.56959 12.6276C7.47673 12.5871 7.37459 12.5874 7.28193 12.6281C5.13845 13.5693 2.80966 14.1011 0.360211 14.2086C0.153179 14.2177 -0.00826597 14.403 0.000327782 14.6216C0.00872622 14.8348 0.17357 15.0018 0.375601 15.0018C0.380797 15.0018 0.386031 15.0017 0.391461 15.0015C2.92978 14.89 5.34521 14.3379 7.5706 13.3607C7.66334 13.32 7.73545 13.2436 7.77373 13.1457Z" fill="#BEBEBE"/>
<path d="M18.7836 0.688051C18.7812 0.684587 18.7789 0.681123 18.7767 0.678278C18.772 0.671886 18.767 0.665866 18.7596 0.657083C18.7574 0.654403 18.7552 0.651764 18.7531 0.649537C18.7469 0.642609 18.7403 0.636177 18.7328 0.628919L18.7268 0.623105C18.7197 0.616631 18.7123 0.610611 18.7044 0.604508L18.6978 0.59923C18.6906 0.593911 18.6832 0.589004 18.6736 0.58286L18.6662 0.578076C18.6603 0.574571 18.654 0.571396 18.6479 0.568221L18.6435 0.565953C18.6406 0.564345 18.6378 0.562778 18.6352 0.561541L18.6298 0.559191C18.6258 0.557459 18.6214 0.555644 18.6146 0.552964L18.6102 0.551232C18.6057 0.549418 18.6012 0.547645 18.5986 0.54682L18.5937 0.544964C18.5894 0.543562 18.5852 0.542408 18.581 0.541377L18.5755 0.539892C18.5706 0.538449 18.5656 0.537006 18.5611 0.536016C18.5533 0.534243 18.5456 0.532924 18.5358 0.531357C18.5324 0.530738 18.529 0.53012 18.5251 0.529666C18.5163 0.528511 18.5074 0.527934 18.497 0.527439L18.4892 0.527027C18.4796 0.526862 18.47 0.52711 18.4583 0.527769L18.4527 0.528099C18.4431 0.528883 18.4338 0.530161 18.4224 0.531975L18.416 0.533006C18.4068 0.534697 18.3978 0.536882 18.3877 0.539604L18.3799 0.541666C18.3713 0.544222 18.3627 0.547274 18.355 0.550201L15.3549 1.76322C15.1614 1.84148 15.0642 2.07141 15.1384 2.27569C15.2125 2.47976 15.4302 2.58231 15.6239 2.50417L17.8449 1.60586C17.3824 2.78775 15.8445 6.18351 12.4706 9.24218C12.3134 9.38469 12.2954 9.63568 12.4304 9.80166C12.5019 9.88949 12.6058 9.93992 12.7156 9.93992C12.8053 9.93992 12.8922 9.9059 12.9604 9.84417C14.5031 8.44551 15.8518 6.82055 16.9688 5.01445C17.5763 4.0321 18.1114 2.98539 18.4867 2.04721L19.2724 4.21214C19.3278 4.36454 19.4688 4.46697 19.6234 4.46697C19.6694 4.46697 19.7146 4.45811 19.7578 4.44062C19.9514 4.36219 20.0485 4.13226 19.9744 3.92799L18.8324 0.78149L18.8308 0.777861C18.8285 0.77147 18.8258 0.765284 18.8214 0.755223C18.8196 0.750893 18.8177 0.746563 18.8156 0.742275C18.8131 0.737203 18.8105 0.732296 18.8061 0.72442L18.8039 0.720297C18.8019 0.71675 18.8001 0.713245 18.7975 0.709081C18.7942 0.703596 18.7906 0.698318 18.787 0.693081L18.7836 0.688051Z" fill="#BEBEBE"/>
</svg>
