<svg width="20" height="21" viewBox="0 0 20 21" fill="none" xmlns="http://www.w3.org/2000/svg">
<rect y="0.752319" width="20" height="20" rx="4" fill="#168DE2"/>
<path fill-rule="evenodd" clip-rule="evenodd" d="M7.40847 8.80819C7.70319 8.80819 7.98585 8.69112 8.19425 8.48272C8.40265 8.27432 8.51972 7.99167 8.51972 7.69694C8.51972 7.40222 8.40265 7.11957 8.19425 6.91117C7.98585 6.70277 7.70319 6.58569 7.40847 6.58569C7.11375 6.58569 6.8311 6.70277 6.6227 6.91117C6.4143 7.11957 6.29722 7.40222 6.29722 7.69694C6.29722 7.99167 6.4143 8.27432 6.6227 8.48272C6.8311 8.69112 7.11375 8.80819 7.40847 8.80819ZM12.5935 8.80819C12.8882 8.80819 13.1708 8.69112 13.3792 8.48272C13.5876 8.27432 13.7047 7.99167 13.7047 7.69694C13.7047 7.40222 13.5876 7.11957 13.3792 6.91117C13.1708 6.70277 12.8882 6.58569 12.5935 6.58569C12.2988 6.58569 12.0161 6.70277 11.8077 6.91117C11.5993 7.11957 11.4822 7.40222 11.4822 7.69694C11.4822 7.99167 11.5993 8.27432 11.8077 8.48272C12.0161 8.69112 12.2988 8.80819 12.5935 8.80819ZM16.5685 13.8982L15.0668 11.3749C14.9677 11.2116 14.8088 11.0934 14.6238 11.0456C14.4389 10.9978 14.2426 11.0242 14.0768 11.119C13.995 11.1648 13.9232 11.2265 13.8656 11.3005C13.808 11.3745 13.7658 11.4593 13.7415 11.5499C13.7172 11.6404 13.7113 11.7349 13.7241 11.8278C13.7368 11.9207 13.7681 12.0101 13.816 12.0907L13.9943 12.3907C13.4722 12.9196 12.8499 13.3391 12.1639 13.6247C11.4778 13.9103 10.7416 14.0562 9.99847 14.054C9.25598 14.0563 8.52047 13.9107 7.83486 13.6256C7.14924 13.3406 6.52724 12.922 6.00514 12.394L6.18597 12.0907C6.23373 12.01 6.26489 11.9207 6.27762 11.8278C6.29035 11.7349 6.28438 11.6405 6.26008 11.55C6.23578 11.4594 6.19364 11.3747 6.13612 11.3007C6.0786 11.2267 6.00687 11.1649 5.92514 11.119C5.75932 11.0237 5.56276 10.9971 5.37756 11.0449C5.19236 11.0927 5.03325 11.2112 4.93431 11.3749L3.43431 13.8982C3.38651 13.9788 3.35531 14.0681 3.34252 14.1609C3.32973 14.2538 3.33562 14.3482 3.35984 14.4387C3.38406 14.5293 3.42613 14.614 3.48356 14.6881C3.541 14.7621 3.61265 14.8239 3.69431 14.8699C3.86023 14.9648 4.05665 14.9911 4.24172 14.9433C4.4268 14.8955 4.5859 14.7774 4.68514 14.614L5.25431 13.6582C6.55546 14.832 8.24691 15.4796 9.99931 15.4749C11.7533 15.4798 13.4463 14.8309 14.7476 13.6549L15.3185 14.614C15.4167 14.7786 15.5758 14.8977 15.7613 14.9456C15.9468 14.9935 16.1437 14.9663 16.3093 14.8699C16.391 14.8239 16.4626 14.7621 16.5201 14.6881C16.5775 14.614 16.6196 14.5293 16.6438 14.4387C16.668 14.3482 16.6739 14.2538 16.6611 14.1609C16.6483 14.0681 16.6171 13.9788 16.5693 13.8982H16.5685Z" fill="white"/>
</svg>
