<svg width="20" height="21" viewBox="0 0 20 21" fill="none" xmlns="http://www.w3.org/2000/svg">
<rect y="0.752319" width="20" height="20" rx="4" fill="#00ACED"/>
<path fill-rule="evenodd" clip-rule="evenodd" d="M16.6654 7.03481C16.1662 7.25606 15.6367 7.40128 15.0945 7.46564C15.6656 7.12368 16.0929 6.58586 16.297 5.95231C15.7599 6.27082 15.1723 6.49516 14.5595 6.61564C14.1477 6.17559 13.602 5.88386 13.0074 5.78576C12.4127 5.68765 11.8023 5.78867 11.2709 6.07312C10.7395 6.35757 10.317 6.80953 10.0688 7.35879C9.8207 7.90806 9.76089 8.5239 9.8987 9.11064C8.81101 9.05614 7.74694 8.7735 6.77557 8.28107C5.8042 7.78864 4.94726 7.09743 4.26036 6.25231C3.90951 6.85424 3.80175 7.56743 3.95912 8.24614C4.11648 8.92486 4.52709 9.51786 5.10703 9.90398C4.67266 9.8904 4.24781 9.77326 3.86786 9.56231V9.59648C3.86818 10.228 4.0868 10.8399 4.48669 11.3286C4.88657 11.8174 5.44312 12.1528 6.06203 12.2781C5.65922 12.3871 5.23692 12.403 4.82703 12.3248C5.00171 12.8683 5.34189 13.3437 5.8 13.6843C6.25811 14.025 6.81124 14.214 7.38203 14.2248C6.81446 14.6703 6.16459 14.9995 5.46964 15.1935C4.77469 15.3876 4.0483 15.4427 3.33203 15.3556C4.58271 16.1598 6.03848 16.5868 7.52536 16.5856C12.557 16.5856 15.3087 12.419 15.3087 8.80481C15.3087 8.68564 15.3054 8.56731 15.3004 8.45064C15.836 8.06331 16.2982 7.58358 16.6654 7.03398V7.03481Z" fill="white"/>
</svg>
